PathFileType	4	(X/Y/Z)	\\147.46.242.158\로컬 디스크 (e)\MOCAP Data\Iguana Capture\iguana\Project 2\Capture day 7\Session 2\Take12.trc
DataRate	CameraRate	NumFrames	NumMarkers	Units	OrigDataRate	OrigDataStartFrame	OrigNumFrames
120.0	120.0	17	23	mm	120.0	297	16798
Frame#	Time	ana:head1			ana:head2			ana:bone1			ana:bone2			ana:bone3			ana:tail1			ana:tail2			ana:tail3			ana:tail4			ana:Rforefoot1			ana:Rforefoot2			ana:Rforefoot3			ana:Lforefoot1			ana:Lforefoot2			ana:Lforefoot3			ana:RhindLeg1			ana:RhindLeg2			ana:RhindLeg3			ana:RhindLeg4			ana:LhindLeg1			ana:LhindLeg2			ana:LhindLeg3			ana:LhindLeg4			
		X1	Y1	Z1	X2	Y2	Z2	X3	Y3	Z3	X4	Y4	Z4	X5	Y5	Z5	X6	Y6	Z6	X7	Y7	Z7	X8	Y8	Z8	X9	Y9	Z9	X10	Y10	Z10	X11	Y11	Z11	X12	Y12	Z12	X13	Y13	Z13	X14	Y14	Z14	X15	Y15	Z15	X16	Y16	Z16	X17	Y17	Z17	X18	Y18	Z18	X19	Y19	Z19	X20	Y20	Z20	X21	Y21	Z21	X22	Y22	Z22	X23	Y23	Z23	

2526	21.042	375.08688	123.70148	41.57405	365.97842	127.69250	44.25118	344.80014	137.11232	42.86922	314.40970	141.62444	41.42465	283.25961	136.93001	28.10318	260.97598	117.03922	17.04098	255.47998	79.77369	10.67888	273.87036	40.68023	7.73213	295.20505	4.73860	5.34396	344.89288	124.85966	29.19688	335.76825	112.46297	29.57963	352.61554	108.70992	19.98643	348.04218	148.71080	26.56409	342.84122	158.73116	19.50308	342.90729	151.28502	2.72869	291.04938	128.31537	22.41408	308.26987	121.33265	20.23772	302.54745	117.26949	3.04631	310.28293	124.09231	3.26261	278.37155	143.78427	21.18025	263.46298	150.73711	16.55064	244.22908	147.39922	4.19810	244.06995	157.66914	3.40985	
2527	21.050	375.47861	123.53032	41.22657	366.31573	127.69696	43.84137	345.18234	136.93576	42.71880	314.80603	141.47438	41.27899	283.57944	136.97914	28.00783	261.15228	117.26810	16.87745	255.38599	80.03916	10.51655	273.68442	40.88808	7.65178	295.12097	4.92490	5.35192	345.15817	125.30677	28.72765	336.83151	111.51183	28.89151	353.59763	108.49926	18.93291	348.30048	148.56529	26.45979	343.00443	158.60495	19.55112	342.84708	151.32127	2.70946	291.32980	128.36880	22.35314	308.44937	121.15701	20.21675	302.44470	117.50215	2.92096	310.31409	124.06547	3.30819	278.64984	143.85068	21.08951	263.76041	150.67102	16.42865	244.40715	147.46306	4.29560	244.10551	157.88542	3.54809	
2528	21.058	375.85861	123.33778	40.84081	366.63440	127.74767	43.39176	345.60153	136.74956	42.56036	315.20642	141.30139	41.14589	283.87570	136.94101	27.95469	261.32510	117.44712	16.72226	255.31071	80.27682	10.31453	273.50598	41.04302	7.62266	295.05515	5.06473	5.36150	345.52750	125.69878	28.11314	337.83051	110.57274	28.05823	354.56326	108.32477	17.91308	348.54633	148.40323	26.36279	343.16568	158.45433	19.58739	342.80679	151.32845	2.71883	291.61404	128.37463	22.28421	308.63672	120.97347	20.20132	302.33655	117.74560	2.76095	310.34396	124.03860	3.35120	278.96158	143.79463	20.99865	264.05136	150.59093	16.31325	244.62708	147.54929	4.37105	244.05885	158.01547	3.68718	
2529	21.067	376.29315	123.24144	40.42783	366.95511	127.80666	42.89547	346.08850	136.53351	42.37592	315.59296	141.07928	41.02346	284.16071	136.81430	27.91968	261.49524	117.56729	16.58165	255.26404	80.46766	10.10825	273.35266	41.14640	7.61424	294.99203	5.22459	5.37433	346.09897	125.90329	27.41347	338.86078	109.86198	27.16832	355.50012	108.07970	16.96379	348.78397	148.21855	26.25568	343.31644	158.29034	19.59935	342.86420	151.30992	2.76681	291.84909	128.37265	22.17364	308.84778	120.71777	20.17402	302.25333	117.93801	2.60927	310.37238	124.01170	3.39124	279.29788	143.62828	20.91831	264.33466	150.51462	16.23293	244.84787	147.64198	4.45236	244.03717	158.05914	3.81090	
2530	21.075	376.72327	123.10051	40.00317	367.30475	127.80833	42.39021	346.61838	136.30566	42.14392	315.98895	140.82004	40.88623	284.44217	136.59763	27.87308	261.67401	117.65678	16.44371	255.26721	80.61075	9.88488	273.22208	41.19342	7.63824	294.95062	5.33783	5.39283	346.93591	125.71497	26.69739	339.85828	109.38432	26.22313	356.36319	107.75355	16.01772	349.01733	148.01895	26.13511	343.46756	158.09523	19.59180	343.07657	151.31761	2.90401	292.05173	128.36478	22.05246	309.09216	120.36375	20.15590	302.13766	118.04641	2.42151	310.39914	123.98475	3.42790	279.69873	143.37370	20.81687	264.63672	150.44267	16.18217	245.13759	147.76289	4.53643	243.99339	157.99042	3.87179	
2531	21.083	377.18588	122.96976	39.53778	367.69354	127.72126	41.90841	347.16049	136.05266	41.86625	316.39224	140.51645	40.75257	284.74207	136.31216	27.80455	261.86017	117.71613	16.31180	255.32301	80.71412	9.65514	273.03271	41.24994	7.69353	294.92200	5.42465	5.40825	347.86212	125.28966	26.05594	340.86282	109.15260	25.25804	357.13364	107.29761	15.09890	349.25894	147.79289	25.98892	343.60715	157.85497	19.55872	343.35498	151.34833	3.07709	292.24805	128.29619	21.94113	309.32529	120.00838	20.12860	302.05878	118.05838	2.28876	310.43463	123.96473	3.45677	280.11981	143.10776	20.70530	264.95465	150.36386	16.15442	245.43564	147.85938	4.60641	244.08437	157.81873	3.78628	
2532	21.092	377.65622	122.78265	39.07455	368.09659	127.52132	41.50757	347.65918	135.76851	41.55986	316.79779	140.18947	40.62030	285.04474	136.04562	27.71639	262.07126	117.76215	16.17054	255.40338	80.79648	9.43823	272.89304	41.27694	7.72813	294.90738	5.47794	5.42167	348.77975	124.78020	25.49389	341.74164	109.13084	24.26830	357.81924	106.76524	14.12714	349.51807	147.54665	25.82428	343.73767	157.58369	19.51007	343.68369	151.41376	3.27328	292.42093	128.23752	21.80218	309.56174	119.63645	20.08613	301.98611	117.97758	2.18134	310.48480	123.95613	3.47807	280.52396	142.92874	20.60607	265.29425	150.28203	16.15178	245.71111	147.92023	4.68286	244.28595	157.67865	3.70240	
2533	21.100	378.13693	122.56065	38.57629	368.57727	127.18734	41.14030	348.11115	135.43846	41.25940	317.20990	139.84634	40.48146	285.37567	135.77011	27.60822	262.30283	117.79293	16.01360	255.48152	80.85612	9.23813	272.78476	41.29017	7.75214	294.89688	5.50710	5.42874	349.63834	124.13338	25.04138	342.68777	108.95985	23.38252	358.46533	106.17020	13.14574	349.74768	147.26788	25.60706	343.86078	157.27599	19.46635	343.97787	151.50224	3.44888	292.64835	128.10736	21.66341	309.79462	119.24828	20.04132	301.92636	117.89195	2.11932	310.53925	123.95277	3.50686	280.92276	142.86977	20.51720	265.66083	150.21475	16.15553	245.95934	147.89999	4.81223	244.51854	157.60765	3.69870	
2534	21.108	378.61414	122.28405	38.06014	369.07837	126.74625	40.80896	348.52823	135.06882	40.96430	317.62997	139.48457	40.35119	285.71515	135.57111	27.52617	262.54150	117.80800	15.85885	255.54784	80.90501	9.04607	272.73492	41.30053	7.72882	294.89145	5.51680	5.43549	350.35263	123.56055	24.65095	343.58499	108.51076	22.57529	359.07227	105.59920	12.10811	349.95508	146.96420	25.36828	343.97830	156.94106	19.43768	344.18176	151.58261	3.57819	292.91647	127.93172	21.53281	309.99133	118.95464	19.95442	301.90244	117.81943	2.08609	310.60223	123.93327	3.56140	281.30444	142.92531	20.44633	266.03354	150.12750	16.15699	246.18228	147.86119	4.98330	244.78354	157.64360	3.73616	
2535	21.117	379.07971	121.99464	37.50619	369.63074	126.18752	40.50610	348.98422	134.67764	40.66665	318.04935	139.10242	40.21224	286.05942	135.44354	27.46583	262.78577	117.80041	15.70730	255.59705	80.93978	8.86344	272.74277	41.30017	7.66993	294.87866	5.52505	5.43997	350.88733	123.13925	24.27629	344.54477	108.09631	21.79849	359.76630	105.23162	10.94660	350.16797	146.65439	25.13949	344.09995	156.59756	19.43711	344.29288	151.64307	3.64139	293.22076	127.68919	21.41211	310.18051	118.70785	19.82635	301.89291	117.76494	2.09752	310.67282	123.89099	3.63264	281.66483	143.08517	20.41189	266.41031	150.01883	16.15080	246.37883	147.77864	5.20840	245.04199	157.72882	3.91204	
2536	21.125	379.52078	121.65564	36.93527	370.20129	125.60058	40.16612	349.43192	134.27197	40.35745	318.46201	138.69104	40.06798	286.41556	135.30730	27.44006	263.01855	117.77797	15.56987	255.63156	80.94962	8.69303	272.78812	41.30950	7.57734	294.85675	5.52429	5.44045	351.31793	122.91032	23.87930	345.44095	107.69924	20.97061	360.45166	105.05444	9.68183	350.36349	146.33188	24.87581	344.22556	156.25378	19.46453	344.28998	151.66846	3.65569	293.55151	127.37250	21.32575	310.38589	118.47765	19.69183	301.89572	117.72250	2.09505	310.75336	123.83222	3.70214	282.04492	143.07675	20.37069	266.78705	149.86694	16.12775	246.59378	147.76758	5.34498	245.27209	157.78867	4.07062	
2537	21.133	379.98697	121.40579	36.32761	370.71704	125.04745	39.78836	349.88388	133.85991	40.03704	318.86972	138.25580	39.91172	286.78256	135.14981	27.43803	263.23941	117.74801	15.45396	255.64680	80.96006	8.55266	272.83493	41.33172	7.46598	294.82797	5.52925	5.43666	351.70599	122.83555	23.39897	346.33658	107.33089	20.13192	361.12015	104.89021	8.36393	350.57745	145.99985	24.60892	344.35675	155.88855	19.49194	344.24017	151.64473	3.63183	293.85672	127.05190	21.24611	310.57672	118.22591	19.55018	301.89969	117.68062	2.07735	310.84009	123.74476	3.75393	282.43430	142.90083	20.32293	267.16104	149.69083	16.10434	246.82716	147.77898	5.39941	245.49706	157.78708	4.19559	
2538	21.142	380.42700	121.14467	35.68901	371.23477	124.62259	39.31112	350.34906	133.46312	39.69294	319.27731	137.80199	39.74851	287.17014	134.98189	27.41840	263.45554	117.72423	15.35473	255.64511	81.01700	8.43089	272.89780	41.34525	7.36212	294.80508	5.53205	5.43338	352.23865	122.94353	22.74420	347.21246	106.99559	19.27730	361.77371	104.71845	7.06327	350.80679	145.66934	24.33941	344.51553	155.50330	19.52654	344.22406	151.63184	3.62731	294.13779	126.76933	21.16384	310.77780	117.92846	19.40825	301.88525	117.63566	2.05178	310.94202	123.62074	3.79605	282.82507	142.63821	20.25485	267.53494	149.51808	16.10201	247.10394	147.81908	5.35284	245.71246	157.74451	4.24256	
2539	21.150	380.88498	120.90716	35.01575	371.74069	124.29609	38.76008	350.82883	133.08089	39.33819	319.68600	137.34589	39.58497	287.57629	134.82549	27.36535	263.68292	117.70749	15.26456	255.64108	81.13818	8.31232	272.87280	41.39369	7.29515	294.78772	5.54195	5.43259	352.91663	122.98689	22.04661	348.02838	106.68582	18.44069	362.34692	104.53339	5.86208	351.03931	145.32855	24.07274	344.68515	155.09299	19.54547	344.05524	151.47075	3.42215	294.44208	126.46942	21.09740	310.97000	117.57201	19.26825	301.85751	117.58770	2.01651	311.05084	123.45475	3.88548	283.19775	142.31674	20.18220	267.92346	149.34837	16.10887	247.40376	147.84560	5.27570	245.89449	157.62367	4.21399	
2540	21.158	381.35571	120.68706	34.35488	372.22339	124.02457	38.19223	351.32062	132.70596	38.97201	320.10666	136.89680	39.43126	287.97137	134.69131	27.29683	263.93140	117.70474	15.17951	255.66269	81.25327	8.20280	272.84607	41.42879	7.24989	294.77878	5.55550	5.43373	353.66226	123.08748	21.26944	348.71066	106.38326	17.67210	362.80276	104.32320	4.85135	351.32343	145.05862	23.92695	344.83475	154.75027	19.57577	343.78583	150.97202	3.01780	294.73489	126.24509	20.99743	311.14917	117.17635	19.09785	301.80844	117.56328	1.99493	311.16476	123.25346	4.03707	283.54529	142.00166	20.14135	268.32126	149.19215	16.13075	247.72633	147.82753	5.20529	246.11105	157.50612	4.14805	
2541	21.167	381.87076	120.50425	33.68282	372.74884	123.82583	37.59809	351.82822	132.33380	38.60656	320.54111	136.46074	39.27023	288.35974	134.57082	27.20000	264.20303	117.71347	15.08953	255.70680	81.34211	8.11808	272.81253	41.45010	7.23382	294.77124	5.57923	5.43570	354.43161	123.03994	20.51206	349.23422	106.09673	17.00132	363.13541	104.09224	4.05781	351.64505	144.85934	23.86801	344.97144	154.49316	19.64464	343.56967	150.55573	2.69558	295.05042	126.03773	20.88885	311.32080	116.75910	18.92581	301.76813	117.54033	1.96176	311.26208	123.02414	4.26299	283.90903	141.73280	20.12635	268.74411	149.07706	16.14495	248.08591	147.74133	5.18735	246.33881	157.34515	4.13468	
2542	21.175	382.42657	120.35664	33.04289	373.27512	123.61033	37.00523	352.32761	131.95160	38.23009	320.97879	136.03712	39.10767	288.73441	134.47002	27.09097	264.48416	117.74492	14.99963	255.78117	81.38651	8.03869	272.78381	41.47536	7.22136	294.75906	5.60928	5.44025	355.12067	122.90356	19.80758	349.57114	105.78415	16.45923	363.32852	103.89985	3.47837	351.94827	144.63031	23.77669	345.08395	154.32779	19.74550	343.43402	150.20367	2.48221	295.36255	125.86435	20.78302	311.49124	116.32185	18.76341	301.72845	117.54086	1.93757	311.33691	122.76924	4.54480	284.30258	141.49753	20.11958	269.16983	148.96487	16.14902	248.43323	147.64206	5.20418	246.55545	157.20793	4.10337	
